<?xml version="1.0" standalone="no"?>
<!DOCTYPE svg PUBLIC "-//W3C//DTD SVG 20010904//EN"
 "http://www.w3.org/TR/2001/REC-SVG-20010904/DTD/svg10.dtd">
<svg version="1.0" xmlns="http://www.w3.org/2000/svg"
 width="260.000000pt" height="260.000000pt" viewBox="0 0 260.000000 260.000000"
 preserveAspectRatio="xMidYMid meet">
<metadata>
Created by potrace 1.11, written by Peter Selinger 2001-2013
</metadata>
<g transform="translate(0.000000,260.000000) scale(0.100000,-0.100000)"
fill="#000000" stroke="none">
<path d="M1142 2260 c-204 -54 -361 -199 -440 -408 -23 -59 -26 -82 -26 -202
-1 -112 3 -149 22 -215 49 -171 135 -342 287 -570 79 -119 236 -339 302 -424
l19 -24 35 50 c19 28 91 129 160 224 383 526 498 850 408 1144 -44 147 -162
292 -300 368 -134 75 -315 97 -467 57z m307 -161 c30 -10 58 -22 63 -27 4 -4
-19 -28 -52 -54 -32 -26 -87 -80 -121 -120 -34 -40 -66 -74 -70 -76 -5 -2 -32
15 -62 37 -30 23 -91 63 -136 90 l-81 49 39 31 c117 93 276 119 420 70z m194
-131 c84 -106 111 -189 105 -317 -3 -66 -10 -100 -32 -146 -29 -65 -67 -125
-78 -125 -4 0 -39 47 -77 103 -39 57 -107 143 -152 191 l-81 86 37 45 c83 102
199 205 231 205 7 0 28 -19 47 -42z m-613 -88 c46 -27 107 -68 136 -90 l54
-40 -59 -88 c-32 -48 -84 -132 -116 -187 -32 -55 -60 -102 -62 -105 -8 -9 -53
53 -83 115 -39 79 -53 170 -39 255 10 66 60 190 77 190 5 0 46 -22 92 -50z
m296 -232 c90 -95 244 -303 244 -330 0 -5 -35 -25 -77 -46 -66 -31 -89 -37
-163 -40 -63 -3 -104 0 -146 13 -65 19 -134 54 -134 68 0 24 215 377 230 377
3 0 24 -19 46 -42z"/>
<path d="M1035 460 c-22 -4 16 -5 85 -2 69 3 127 6 129 8 7 7 -172 1 -214 -6z"/>
<path d="M1438 463 c17 -2 47 -2 65 0 17 2 3 4 -33 4 -36 0 -50 -2 -32 -4z"/>
<path d="M1563 453 c9 -2 25 -2 35 0 9 3 1 5 -18 5 -19 0 -27 -2 -17 -5z"/>
<path d="M932 439 c-51 -20 12 -44 138 -54 41 -3 89 -8 105 -10 20 -3 25 -2
15 4 -8 5 -55 11 -105 15 -49 3 -108 11 -130 18 l-40 11 40 13 c22 7 31 13 20
13 -11 0 -30 -4 -43 -10z"/>
<path d="M1655 436 c26 -8 35 -14 25 -18 -8 -4 -10 -7 -3 -7 6 -1 15 4 18 9 7
11 -36 30 -63 29 -9 0 1 -6 23 -13z"/>
<path d="M1590 400 c-34 -7 -34 -7 -5 -8 17 0 41 4 55 8 33 11 0 11 -50 0z"/>
<path d="M1473 383 c15 -2 39 -2 55 0 15 2 2 4 -28 4 -30 0 -43 -2 -27 -4z"/>
<path d="M1258 373 c28 -2 76 -2 105 0 28 2 5 3 -53 3 -58 0 -81 -1 -52 -3z"/>
</g>
</svg>
